<svg xmlns="http://www.w3.org/2000/svg" width="200" height="40" viewBox="0 0 200 40">
	<title>Deliveroo logo</title>
	<g fill="none" fill-rule="evenodd">
		<path fill="#00CDBE" d="M82.75 27.47h2.92l-.48-2.25V11.85h-2.8v6.1c-.84-.96-2-1.53-3.35-1.53-2.8 0-4.96 2.28-4.96 5.64 0 3.35 2.16 5.64 4.95 5.64 1.4 0 2.59-.59 3.43-1.6l.3 1.37h-.01zm55.18-8.05c.57 0 1.1.14 1.57.48l1.33-2.96a3.83 3.83 0 0 0-2.02-.54 3.4 3.4 0 0 0-2.98 1.61l-.3-1.36h-2.87l.46 2.12v8.7h2.8v-6.9a2.18 2.18 0 0 1 2.01-1.15zm8.19 5.36c-1.62 0-2.82-1.06-2.82-2.72 0-1.68 1.2-2.73 2.82-2.73 1.63 0 2.8 1.05 2.8 2.73 0 1.66-1.17 2.72-2.8 2.72zm-69.33-2.72c0-1.68 1.2-2.73 2.81-2.73 1.64 0 2.81 1.05 2.81 2.73 0 1.66-1.17 2.72-2.8 2.72-1.62 0-2.82-1.06-2.82-2.72zm81.69 2.72c-1.62 0-2.81-1.06-2.81-2.72 0-1.68 1.2-2.73 2.8-2.73 1.65 0 2.82 1.05 2.82 2.73 0 1.66-1.17 2.72-2.81 2.72zm-66.03-5.62c1.45 0 2.4.68 2.68 1.91h-5.37c.32-1.23 1.26-1.9 2.69-1.9zm33.4 0c1.44 0 2.38.68 2.68 1.91h-5.37c.31-1.23 1.25-1.9 2.68-1.9zm-13.63 8.3h4.5l2.9-10.81h-3.03l-2.14 8.76-2.15-8.76h-3l2.92 10.82zm-7.2 0h2.79V16.66h-2.79v10.82zm-12.15.2c1.56 0 3.1-.41 4.37-1.23l-1.07-2.39c-1 .53-2.12.84-3.25.84-1.47 0-2.5-.57-2.94-1.61h7.85a6 6 0 0 0 .13-1.28c0-3.36-2.33-5.6-5.46-5.6-3.15 0-5.46 2.26-5.46 5.64 0 3.44 2.29 5.64 5.84 5.64zm71.13-5.6c0-3.36-2.35-5.64-5.52-5.64-3.17 0-5.52 2.28-5.52 5.64 0 3.35 2.35 5.64 5.52 5.64 3.17 0 5.52-2.29 5.52-5.64zm-37.78 5.64c1.55 0 3.08-.42 4.37-1.24l-1.08-2.39c-1 .52-2.12.84-3.25.84-1.47 0-2.5-.57-2.94-1.62h7.85a6 6 0 0 0 .13-1.27c0-3.36-2.33-5.6-5.46-5.6-3.15 0-5.46 2.26-5.46 5.64 0 3.44 2.3 5.64 5.84 5.64zm19.9 0c3.17 0 5.52-2.29 5.52-5.64 0-3.36-2.35-5.64-5.52-5.64-3.17 0-5.52 2.28-5.52 5.64 0 3.35 2.35 5.64 5.52 5.64zm-46.39-.23h2.8V11.85h-2.8v15.62zm6.7-12.31c.98 0 1.74-.76 1.74-1.76s-.76-1.76-1.74-1.76c-1.01 0-1.77.75-1.77 1.76 0 1 .76 1.76 1.77 1.76zM58.47 2l-1.6 15-2.73-12.65-8.54 1.8 2.72 12.63L36 21.36l2.18 10.1L59.85 36l4.95-10.97L67.16 2.9l-8.7-.9zm-6.85 21.75c-.44.4-1.04.37-1.66.16-.63-.2-.9-.95-.67-1.85.18-.67 1-.77 1.42-.78.16 0 .32.03.46.1.3.12.8.4.9.83.14.62 0 1.14-.45 1.54zm6.28.7c-.33.55-1.18.62-2.02.22-.56-.27-.56-.97-.5-1.39.03-.23.13-.45.28-.63.2-.25.53-.58.92-.6.64-.01 1.18.27 1.49.78.3.5.15 1.06-.17 1.62z"></path>
	</g>
</svg>
