<svg xmlns="http://www.w3.org/2000/svg" width="200" height="40" viewBox="0 0 200 40">
	<title>Hostelworld logo</title>

	<g fill="none" fill-rule="evenodd">
		<path fill="#F25621" fill-rule="nonzero" d="M57.829 5A4.171 4.171 0 0 1 62 9.174v21.652A4.172 4.172 0 0 1 57.826 35H36.174A4.172 4.172 0 0 1 32 30.826V9.174A4.172 4.172 0 0 1 36.174 5H57.83zM56.82 9.771h-6a.402.402 0 0 0-.402.402v5.365h.67a.182.182 0 0 1 .173.182.187.187 0 0 1-.039.109l-3.845 3.916a.399.399 0 0 0 0 .51l3.842 3.916a.187.187 0 0 1 .038.109.182.182 0 0 1-.172.182h-.67v5.365c0 .223.182.402.402.402h6a.402.402 0 0 0 .402-.402V10.173a.394.394 0 0 0-.399-.402zm-13.624 0h-6.02a.402.402 0 0 0-.402.402v19.654c0 .223.182.402.403.402h6.016a.402.402 0 0 0 .402-.402v-5.365h-.664a.182.182 0 0 1-.148-.275l.03-.038 3.823-3.894a.399.399 0 0 0 0-.51l-3.82-3.894a.182.182 0 0 1 .118-.313h.664v-5.365a.402.402 0 0 0-.402-.402zm93.925 5.688c2.69 0 4.743 1.991 4.743 4.515V20c0 2.524-2.078 4.541-4.765 4.541-2.69 0-4.743-1.988-4.743-4.515V20c0-2.524 2.078-4.541 4.765-4.541zm-54.925 0c2.687 0 4.742 1.991 4.742 4.515V20c0 2.524-2.077 4.541-4.765 4.541-2.69 0-4.742-1.988-4.742-4.515V20c0-2.524 2.078-4.541 4.765-4.541zm9.044.022c1.583 0 2.777.354 3.754 1.06.102.07.127.21.054.309l-1.165 1.618a.218.218 0 0 1-.297.058 4.586 4.586 0 0 0-2.445-.74c-.437 0-.635.15-.635.36v.025c0 .236.237.383 1.159.559 2.228.411 3.721 1.06 3.718 2.808v.026c0 1.829-1.506 2.949-3.846 2.949-1.675 0-3.194-.447-4.292-1.322a.223.223 0 0 1-.032-.315l1.28-1.526a.222.222 0 0 1 .293-.041 4.986 4.986 0 0 0 2.888.903c.524 0 .747-.138.747-.374v-.025c0-.25-.274-.383-1.206-.572-1.953-.395-3.67-.957-3.67-2.798v-.026c0-1.653 1.292-2.936 3.695-2.936zm35.707.14a.22.22 0 0 1 .21.15l1.133 3.39c.067.204.361.2.422-.007l.986-3.35a.216.216 0 0 1 .21-.16h2.531c.15 0 .256.146.208.287l-2.707 8.333a.22.22 0 0 1-.21.153h-2.221a.22.22 0 0 1-.208-.147l-1.27-3.593c-.067-.198-.345-.198-.415 0l-1.27 3.593a.22.22 0 0 1-.208.147h-2.221a.22.22 0 0 1-.21-.153L119 15.93a.221.221 0 0 1 .21-.287h2.58c.095 0 .181.067.21.16l.99 3.35c.06.208.354.21.42.007l1.134-3.39a.217.217 0 0 1 .207-.15zm19.902.026c1.545 0 2.528.386 3.137.996.524.523.798 1.168.798 2.064v.026c0 1.18-.571 2.027-1.503 2.55a.22.22 0 0 0-.074.316l1.65 2.413a.22.22 0 0 1-.181.344h-2.787a.223.223 0 0 1-.185-.099l-1.576-2.39h-.623v2.27a.22.22 0 0 1-.22.22h-2.47a.22.22 0 0 1-.22-.22v-8.27a.22.22 0 0 1 .22-.22zm-34.845 0a.22.22 0 0 1 .22.22v1.947a.22.22 0 0 1-.22.22h-4.347v.884h4.034a.22.22 0 0 1 .22.22v1.663a.22.22 0 0 1-.22.22h-4.034v.945h4.408c.121 0 .22.099.22.223v1.947a.22.22 0 0 1-.22.22h-7.05a.22.22 0 0 1-.22-.22v-8.269a.22.22 0 0 1 .22-.22zm3.757-.003a.22.22 0 0 1 .22.22v6.003h3.874a.22.22 0 0 1 .22.217v2.049a.22.22 0 0 1-.22.22h-6.565a.22.22 0 0 1-.22-.22v-8.27a.22.22 0 0 1 .22-.22zm38.674 0a.22.22 0 0 1 .22.22v6.003h3.875a.22.22 0 0 1 .22.217v2.049a.22.22 0 0 1-.22.22h-6.565a.22.22 0 0 1-.22-.22v-8.27a.22.22 0 0 1 .22-.22zm-83.595 0a.22.22 0 0 1 .22.22v2.853h2.662v-2.853a.22.22 0 0 1 .22-.22h2.47a.22.22 0 0 1 .221.22v8.269a.22.22 0 0 1-.22.22h-2.47a.22.22 0 0 1-.22-.22v-2.901H71.06v2.901a.22.22 0 0 1-.22.22h-2.47a.22.22 0 0 1-.221-.22v-8.27a.22.22 0 0 1 .22-.22zm91.94 0c3.46 0 5.19 1.707 5.19 4.28v.025c0 2.575-1.765 4.404-5.288 4.404h-3.016a.22.22 0 0 1-.22-.22v-8.27a.22.22 0 0 1 .22-.22zm-59.115 0c.121 0 .22.099.217.22v2.023a.22.22 0 0 1-.22.22h-2.343v6.026a.22.22 0 0 1-.22.22h-2.47a.22.22 0 0 1-.22-.22v-6.026h-2.343a.22.22 0 0 1-.22-.22v-2.023a.22.22 0 0 1 .22-.22zm33.434 2.39c-1.108 0-1.803.92-1.803 1.94V20c0 1.034.708 1.966 1.828 1.966 1.108 0 1.804-.92 1.804-1.94V20c0-1.034-.709-1.966-1.83-1.966zm-54.929 0c-1.107 0-1.803.92-1.803 1.94V20c0 1.034.709 1.966 1.829 1.966 1.107 0 1.803-.92 1.803-1.94V20c0-1.034-.709-1.966-1.829-1.966zm80.675.15h-.485v3.632h.485c1.33 0 2.189-.546 2.189-1.803v-.026c0-1.254-.858-1.803-2.19-1.803zm-16.066-.099h-1.27v1.704h1.257c.696 0 1.12-.31 1.12-.845v-.026c0-.558-.434-.833-1.107-.833z"></path>
	</g>
</svg>
