<svg xmlns="http://www.w3.org/2000/svg" width="200" height="40" viewBox="0 0 200 40">
	<title>Made logo</title>

	<g fill="none" fill-rule="evenodd">
		<path fill="#000" fill-rule="nonzero" d="M135.57 9.193v3.357h-10.649V18h9.112v3.248h-9.112v5.45h10.65V30h-13.834V9.193h13.833zm-27.5 0c5.708 0 10.21 4.679 10.21 10.403 0 5.78-4.502 10.404-10.21 10.404h-6.917V9.193zm-18.994 0L97.695 30h-3.459l-1.427-3.578h-9.551L81.83 30h-3.514L86.99 9.193h2.086zm-32.496 0l7.85 8.972 7.904-8.972h2.525V30h-3.184V15.028l-7.245 8.146-7.191-8.146V30H54V9.193h2.58zm51.599 3.357h-3.842v14.092h3.842c3.788 0 6.862-3.137 6.862-7.046 0-3.853-3.074-7.046-6.862-7.046zm-20.146 2.533l-3.293 8.036h6.532l-3.239-8.036zM142.377 6C144.353 6 146 7.596 146 9.578c0 1.982-1.647 3.633-3.623 3.633-1.976 0-3.568-1.651-3.568-3.633A3.566 3.566 0 0 1 142.377 6zm0 .606c-1.592 0-2.91 1.376-2.91 2.972 0 1.651 1.318 2.972 2.91 2.972a2.956 2.956 0 0 0 2.964-2.972c0-1.596-1.317-2.972-2.964-2.972zm.384.825v1.266l.008.09a.492.492 0 0 0 .397.398l.09.008h1.317v.77h-1.318l-.089.008a.492.492 0 0 0-.397.398l-.008.09v1.32h-.768v-1.32l-.008-.09a.492.492 0 0 0-.397-.398l-.09-.008h-1.262v-.77h1.263l.089-.008a.492.492 0 0 0 .397-.398l.008-.09V7.431h.768z"></path>
	</g>
</svg>
