<svg xmlns="http://www.w3.org/2000/svg" width="200" height="40" viewBox="0 0 200 40">
	<title>Monzo logo</title>

	<g fill="none" fill-rule="evenodd">
		<path fill="#F6395B" fill-rule="nonzero" d="M71.7 28.83c-.05.27-.17.53-.36.73l-5.79 5.8a.43.43 0 1 1-.72-.36V22.3l6.87-6.89v13.42z"></path>

		<path fill="#EBCE95" fill-rule="nonzero" d="M67.02 10.7c0-.2-.17-.36-.37-.36-.2 0-.36.16-.36.36l-8.36 8.7v9.78l6.9-6.87 6.87-6.9-4.68-4.71z"></path>

		<path fill="#007A8B" fill-rule="nonzero" d="M44.15 28.83c.05.27.18.53.37.73l5.8 5.8c.1.2.34.27.54.18.2-.1.27-.34.18-.54V22.3l-6.89-6.89v13.42z"></path>

		<path fill="#8EBCA4" fill-rule="nonzero" d="M49.6 10.7a.36.36 0 1 0-.73 0l-4.72 4.71 6.9 6.9 6.88 6.87v-9.8L49.6 10.7z"></path>

		<path fill="#10233E" fill-rule="nonzero" d="M80.42 28.83v-12.7h3.27v1.46c.72-1.29 2.16-2 3.62-1.81 1.4.1 2.63.93 3.26 2.17 1.46-1.45 2.56-2.17 4-2.17 2.9 0 4.71 1.45 4.71 4.71v8.34h-3.63v-6.9c0-1.81-.36-2.55-1.81-2.55-1.45 0-2.17.72-2.17 2.55v6.9h-4v-6.9c0-1.81-.36-2.55-1.45-2.55-1.09 0-2.15.75-2.15 2.55v6.9h-3.65zm23.21-11.24a6.9 6.9 0 0 1 11.61 4.72 6.82 6.82 0 0 1-6.88 6.87c-1.81 0-3.54-.8-4.71-2.18a6.53 6.53 0 0 1-1.82-4.71 6.52 6.52 0 0 1 1.8-4.7zm4.73 7.98c1.8 0 3.27-1.46 3.27-3.26a3.09 3.09 0 0 0-6.17 0 3.27 3.27 0 0 0 2.9 3.26zm9.43 3.26v-12.7h3.63v1.46c.72-1.09 1.81-1.81 3.62-1.81 2.56 0 4.36 1.81 4.36 4.71v8.34h-3.63v-6.9c0-1.81-.36-2.55-1.81-2.55-1.45 0-2.56.72-2.56 2.55v6.9h-3.61zm27.56-11.24a6.89 6.89 0 0 1 11.6 4.72 6.82 6.82 0 0 1-6.53 6.87 6.17 6.17 0 0 1-5.08-2.18 6.54 6.54 0 0 1-1.81-4.71 6.53 6.53 0 0 1 1.81-4.7h.01zm5.08 7.98a3.26 3.26 0 0 0 2.9-3.26 3.08 3.08 0 1 0-6.16 0c0 1.8 1.45 3.25 3.25 3.26h.01zm-18.13 3.26v-2.56l5.04-6.87h-5.06v-3.26h9.43v2.9L137 25.57h4.71v3.26h-9.41z"></path>
	</g>
</svg>
