<svg xmlns="http://www.w3.org/2000/svg" width="200" height="40" viewBox="0 0 200 40">
	<title>Xero logo</title>

	<g fill="none" fill-rule="evenodd">
		<path fill="#13B5EA" fill-rule="nonzero" d="M101 0a20 20 0 1 1 0 40 20 20 0 0 1 0-40zm-5.18 16.41a4.4 4.4 0 0 0-1.76 4.68 4.49 4.49 0 0 0 7.9 1.55l.02-.02c.24-.3.2-.72-.07-.92-.23-.17-.6-.24-.9.13-.06.1-.14.19-.21.28a3.27 3.27 0 0 1-5.45-1.04 3.2 3.2 0 0 1-.14-.5l-.01-.1h6.37c.88-.02 1.35-.62 1.22-1.31a4.4 4.4 0 0 0-1.98-2.88 4.57 4.57 0 0 0-5 .13zm15.96-.82a4.45 4.45 0 0 0-4.48 4.4c0 2.43 2 4.4 4.48 4.4a4.45 4.45 0 0 0 4.47-4.4c0-2.42-2-4.4-4.47-4.4zm-26.52.2a.6.6 0 0 0 0 .85L88.67 20l-3.4 3.35a.6.6 0 0 0-.18.59.6.6 0 0 0 .43.43c.22.06.45 0 .6-.16l3.42-3.36 3.4 3.34c.17.18.43.24.67.15a.6.6 0 0 0 .2-.98l-3.4-3.36 3.4-3.35a.6.6 0 0 0-.03-.83.62.62 0 0 0-.83-.02l-3.4 3.35-3.43-3.35a.62.62 0 0 0-.86 0zm21.72-.12h-.19c-.56 0-1.1.17-1.56.52a.62.62 0 0 0-1.03-.3.59.59 0 0 0-.17.42v7.42a.6.6 0 0 0 .6.56.6.6 0 0 0 .62-.57v-4.55c0-1.52.14-2.14 1.46-2.3l.26-.01c.36-.01.62-.26.62-.59a.6.6 0 0 0-.61-.6zm4.8 1.17a3.2 3.2 0 0 1 3.2 3.15 3.2 3.2 0 0 1-3.2 3.16 3.19 3.19 0 0 1-3.22-3.16 3.19 3.19 0 0 1 3.22-3.15zm0 2.06c-.61 0-1.11.5-1.11 1.1 0 .6.5 1.09 1.1 1.09a1.1 1.1 0 0 0 1.12-1.1c0-.6-.5-1.09-1.11-1.09zm-13.36-2.07a3.22 3.22 0 0 1 3.12 2.44h-6.29v-.03-.02a3.22 3.22 0 0 1 3.17-2.4z"></path>
	</g>
</svg>
